<svg xmlns="http://www.w3.org/2000/svg" width="720" height="420" viewBox="0 0 720 420"><rect width="100%" height="100%" fill="white"/><text x="55" y="28" font-size="18">IQL cop learning curve</text><text x="8" y="55" font-size="12">Episode return</text><path d="M55 55V365H665" fill="none" stroke="#334155"/><polyline points="55.0,365.0 70.6,57.8 86.3,84.1 101.9,67.5 117.6,71.6 133.2,365.0 148.8,365.0 164.5,79.9 180.1,365.0 195.8,71.6 211.4,59.2 227.1,75.8 242.7,365.0 258.3,70.2 274.0,82.7 289.6,61.9 305.3,365.0 320.9,365.0 336.5,365.0 352.2,365.0 367.8,365.0 383.5,365.0 399.1,70.2 414.7,365.0 430.4,63.3 446.0,55.0 461.7,59.2 477.3,365.0 492.9,56.4 508.6,365.0 524.2,82.7 539.9,68.8 555.5,365.0 571.2,365.0 586.8,59.2 602.4,365.0 618.1,75.8 633.7,75.8 649.4,61.9 665.0,365.0" fill="none" stroke="#2563eb" stroke-width="2"/><text x="55" y="406" font-size="12">Episodes</text></svg>
