<svg xmlns="http://www.w3.org/2000/svg" width="720" height="420" viewBox="0 0 720 420"><rect width="100%" height="100%" fill="white"/><text x="55" y="28" font-size="18">IQL thief learning curve</text><text x="8" y="55" font-size="12">Episode return</text><path d="M55 55V365H665" fill="none" stroke="#334155"/><polyline points="55.0,55.0 70.6,362.2 86.3,335.9 101.9,352.5 117.6,348.4 133.2,55.0 148.8,55.0 164.5,340.1 180.1,55.0 195.8,348.4 211.4,360.8 227.1,344.2 242.7,55.0 258.3,349.8 274.0,337.3 289.6,358.1 305.3,55.0 320.9,55.0 336.5,55.0 352.2,55.0 367.8,55.0 383.5,55.0 399.1,349.8 414.7,55.0 430.4,356.7 446.0,365.0 461.7,360.8 477.3,55.0 492.9,363.6 508.6,55.0 524.2,337.3 539.9,351.2 555.5,55.0 571.2,55.0 586.8,360.8 602.4,55.0 618.1,344.2 633.7,344.2 649.4,358.1 665.0,55.0" fill="none" stroke="#2563eb" stroke-width="2"/><text x="55" y="406" font-size="12">Episodes</text></svg>
