<svg xmlns="http://www.w3.org/2000/svg" width="720" height="420" viewBox="0 0 720 420"><rect width="100%" height="100%" fill="white"/><text x="55" y="28" font-size="18">Mean IQL TD error</text><text x="8" y="55" font-size="12">Absolute TD error</text><path d="M55 55V365H665" fill="none" stroke="#334155"/><polyline points="55.0,163.2 70.6,109.9 86.3,185.9 101.9,179.7 117.6,174.8 133.2,187.4 148.8,168.9 164.5,209.9 180.1,173.6 195.8,177.9 211.4,167.0 227.1,168.4 242.7,184.9 258.3,150.5 274.0,144.5 289.6,197.3 305.3,116.0 320.9,113.6 336.5,82.8 352.2,121.6 367.8,186.6 383.5,147.9 399.1,145.6 414.7,158.4 430.4,191.1 446.0,365.0 461.7,184.5 477.3,142.0 492.9,244.6 508.6,178.0 524.2,163.5 539.9,214.7 555.5,171.1 571.2,159.0 586.8,55.0 602.4,168.3 618.1,174.4 633.7,203.6 649.4,155.2 665.0,213.1" fill="none" stroke="#2563eb" stroke-width="2"/><text x="55" y="406" font-size="12">Episodes</text></svg>
